<svg width="52" height="56" viewBox="0 0 52 56" fill="none" xmlns="http://www.w3.org/2000/svg">
<path d="M6.09358 33.9466L6.09921 33.95L36.0904 52.1429L36.0905 52.143C38.9646 53.8866 42.3737 53.8563 45.0738 52.5869C47.7704 51.3192 49.5 48.968 49.5 46.1917V9.80827C49.5 7.03196 47.7704 4.68081 45.0738 3.41308C42.3737 2.14373 38.9646 2.11338 36.0905 3.85704L36.0904 3.85712L6.09922 22.05L6.09357 22.0534C4.94867 22.7438 4.04065 23.6572 3.42515 24.6937C2.81073 25.7285 2.5 26.8632 2.5 28C2.5 29.1368 2.81073 30.2715 3.42515 31.3063C4.04065 32.3428 4.94867 33.2562 6.09358 33.9466Z" stroke="white" stroke-width="5"/>
</svg>
