<svg width="52" height="56" viewBox="0 0 52 56" fill="none" xmlns="http://www.w3.org/2000/svg">
<path d="M45.9064 33.9466L45.9008 33.95L15.9096 52.1429L15.9095 52.143C13.0354 53.8866 9.6263 53.8563 6.92624 52.5869C4.22964 51.3192 2.5 48.968 2.5 46.1917V9.80827C2.5 7.03196 4.22964 4.68081 6.92624 3.41308C9.6263 2.14373 13.0354 2.11338 15.9095 3.85704L15.9096 3.85712L45.9008 22.05L45.9064 22.0534C47.0513 22.7438 47.9593 23.6572 48.5749 24.6937C49.1893 25.7285 49.5 26.8632 49.5 28C49.5 29.1368 49.1893 30.2715 48.5749 31.3063C47.9593 32.3428 47.0513 33.2562 45.9064 33.9466Z" stroke="white" stroke-width="5"/>
</svg>
